#!OML:ASF H:\LiuWeirdWalks\Patient Classification 1\Patient 1\Session 1\male.ASF
:FULLY-SPECIFIED
:DEGREES
710
root 1.42558 17.8274 3.57192 -2.36955 15.3932 1.50623
lowerback 6.87024 -2.3857 -4.50292
upperback 0.852256 -3.50171 0.241488
thorax -2.68112 -1.69607 3.08311
lowerneck -8.13392 7.56981 11.9533
upperneck 21.8239 10.3861 -7.88719
head 9.2345 5.1322 -3.53912
rclavicle -1.18332e-014 -1.9015e-014
rhumerus -47.9565 3.19242 -61.1959
rradius 58.9713
rwrist -1.05432
rhand 3.74985 4.45727
rfingers 7.12502
rthumb 29.1768 -23.2759
lclavicle -1.18332e-014 -1.9015e-014
lhumerus -26.4102 -5.58933 74.101
lradius 57.2267
lwrist -6.11203
lhand -8.38347 -3.27664
lfingers 7.12502
lthumb 17.5398 25.9521
rfemur -4.78765 -8.19867 17.5372
rtibia 38.0849
rfoot -19.0094 -31.8451
rtoes -1.26995
lfemur -17.0842 13.7897 -12.8786
ltibia 45.2359
lfoot -5.31034 -10.2891
ltoes -22.5902
711
root 1.3553 17.8277 3.58322 -2.88414 15.4575 1.12583
lowerback 6.94016 -2.36286 -4.32199
upperback 0.978861 -3.45499 0.337393
thorax -2.59761 -1.67858 3.07705
lowerneck -7.66191 7.72732 12.1051
upperneck 21.6742 10.6031 -7.77748
head 9.12324 5.26922 -3.51299
rclavicle -4.79721e-014 5.50385e-015
rhumerus -48.2951 3.37793 -61.2421
rradius 58.9282
rwrist -0.503852
rhand 4.17504 4.25318
rfingers 7.12502
rthumb 29.5828 -23.4088
lclavicle -4.79721e-014 5.50385e-015
lhumerus -26.0779 -6.08211 74.2266
lradius 57.4403
lwrist -5.97376
lhand -8.17742 -3.33764
lfingers 7.12502
lthumb 17.7381 25.8733
rfemur -4.03698 -8.24669 18.1829
rtibia 37.4639
rfoot -18.9952 -32.0575
rtoes -0.97432
lfemur -17.4305 13.6143 -12.0891
ltibia 46.3751
lfoot -4.17788 -10.5604
ltoes -23.2863
712
root 1.28455 17.8283 3.5927 -3.3647 15.4628 0.707171
lowerback 7.00288 -2.32592 -4.10249
upperback 1.08218 -3.38682 0.437877
thorax -2.53787 -1.64953 3.05274
lowerneck -7.25503 7.87533 12.2747
upperneck 21.5873 10.801 -7.66119
head 9.04503 5.3974 -3.48871
rclavicle -1.45241e-014 9.64106e-015
rhumerus -48.5825 3.52206 -61.3034
rradius 58.8486
rwrist 0.0348911
rhand 4.6463 4.05841
rfingers 7.12502
rthumb 30.0325 -23.523
lclavicle -1.45241e-014 9.64106e-015
lhumerus -25.8041 -6.56971 74.2957
lradius 57.7125
lwrist -5.81143
lhand -7.94936 -3.42595
lfingers 7.12502
lthumb 17.9576 25.765
rfemur -3.31376 -8.32775 18.8395
rtibia 36.7882
rfoot -18.9171 -32.1307
rtoes -0.768203
lfemur -17.9339 13.4866 -11.2804
ltibia 47.6522
lfoot -2.80725 -10.7748
ltoes -23.8734
713
root 1.21331 17.8291 3.6006 -3.81338 15.4146 0.220702
lowerback 7.04653 -2.28031 -3.81409
upperback 1.16323 -3.30138 0.549907
thorax -2.49496 -1.61144 3.00004
lowerneck -6.8599 8.01322 12.4562
upperneck 21.4953 10.9819 -7.54067
head 8.96635 5.51825 -3.46735
rclavicle -8.30159e-015 -5.71506e-016
rhumerus -48.8356 3.63637 -61.3843
rradius 58.7564
rwrist 0.560881
rhand 5.13395 3.91776
rfingers 7.12502
rthumb 30.4977 -23.5782
lclavicle -8.30159e-015 -5.71506e-016
lhumerus -25.6027 -7.04426 74.3062
lradius 58.0586
lwrist -5.61174
lhand -7.70273 -3.51004
lfingers 7.12502
lthumb 18.1948 25.659
rfemur -2.62246 -8.43764 19.5402
rtibia 36.0569
rfoot -18.78 -32.0696
rtoes -0.632205
lfemur -18.6191 13.4149 -10.4138
ltibia 49.0792
lfoot -1.14533 -10.9649
ltoes -24.2981
714
root 1.14183 17.8305 3.60613 -4.20803 15.328 -0.299889
lowerback 7.07641 -2.23216 -3.48827
upperback 1.21954 -3.20961 0.667416
thorax -2.47176 -1.56942 2.93145
lowerneck -6.52371 8.1442 12.6318
upperneck 21.447 11.1479 -7.40484
head 8.91113 5.63132 -3.44005
rclavicle 2.29371e-014 7.10655e-015
rhumerus -49.0452 3.73214 -61.492
rradius 58.6767
rwrist 1.06095
rhand 5.64398 3.75975
rfingers 7.12502
rthumb 30.984 -23.6448
lclavicle 2.29371e-014 7.10655e-015
lhumerus -25.4587 -7.49024 74.2506
lradius 58.4659
lwrist -5.38448
lhand -7.4497 -3.57246
lfingers 7.12502
lthumb 18.4383 25.5737
rfemur -1.98295 -8.58952 20.2479
rtibia 35.2822
rfoot -18.5687 -31.8717
rtoes -0.588716
lfemur -19.5121 13.3714 -9.52698
ltibia 50.6428
lfoot 0.848261 -11.1357
ltoes -24.4888
715
root 1.07 17.8316 3.60861 -4.55053 15.1922 -0.88276
lowerback 7.08399 -2.1733 -3.09467
upperback 1.25902 -3.09775 0.796791
thorax -2.45735 -1.51728 2.83472
lowerneck -6.25308 8.26569 12.7874
upperneck 21.4119 11.2921 -7.24508
head 8.86768 5.73264 -3.40196
rclavicle 4.51117e-014 -2.5345e-015
rhumerus -49.2104 3.78907 -61.6208
rradius 58.6076
rwrist 1.55147
rhand 6.12342 3.62922
rfingers 7.12502
rthumb 31.4409 -23.6873
lclavicle 4.51117e-014 -2.5345e-015
lhumerus -25.3475 -7.90656 74.135
lradius 58.9224
lwrist -5.14297
lhand -7.2306 -3.64667
lfingers 7.12502
lthumb 18.649 25.4794
rfemur -1.4152 -8.75683 21.0052
rtibia 34.4755
rfoot -18.2869 -31.5671
rtoes -0.606333
lfemur -20.618 13.3374 -8.58161
ltibia 52.3237
lfoot 3.16632 -11.2816
ltoes -24.3685
716
root 0.998535 17.8328 3.60799 -4.83381 15.0405 -1.47038
lowerback 7.08139 -2.11332 -2.69439
upperback 1.28184 -2.98388 0.928582
thorax -2.45387 -1.4636 2.73636
lowerneck -6.06828 8.378 12.919
upperneck 21.4449 11.4173 -7.06687
head 8.85873 5.82264 -3.35289
rclavicle 5.57886e-014 -6.36111e-015
rhumerus -49.3248 3.82917 -61.7748
rradius 58.5522
rwrist 2.01634
rhand 6.53837 3.50775
rfingers 7.12502
rthumb 31.8362 -23.7309
lclavicle 5.57886e-014 -6.36111e-015
lhumerus -25.2716 -8.26365 73.965
lradius 59.415
lwrist -4.92135
lhand -7.0481 -3.71167
lfingers 7.12502
lthumb 18.8246 25.3975
rfemur -0.914858 -8.9856 21.7448
rtibia 33.6547
rfoot -17.9452 -31.1599
rtoes -0.68521
lfemur -21.9153 13.251 -7.64047
ltibia 54.0916
lfoot 5.75086 -11.4004
ltoes -23.781
717
root 0.928299 17.8346 3.60454 -5.06737 14.8684 -2.04246
lowerback 7.07046 -2.04619 -2.29741
upperback 1.30144 -2.86082 1.05616
thorax -2.44868 -1.4052 2.63425
lowerneck -5.93156 8.47765 13.0306
upperneck 21.4537 11.5201 -6.88901
head 8.84639 5.89889 -3.30182
rclavicle 2.34286e-014 1.49089e-015
rhumerus -49.3801 3.84057 -61.9482
rradius 58.5134
rwrist 2.45783
rhand 6.83628 3.40863
rfingers 7.12502
rthumb 32.1198 -23.7732
lclavicle 2.34286e-014 1.49089e-015
lhumerus -25.2206 -8.55316 73.7489
lradius 59.9388
lwrist -4.69528
lhand -6.93606 -3.79156
lfingers 7.12502
lthumb 18.9323 25.3071
rfemur -0.474639 -9.27359 22.4481
rtibia 32.8346
rfoot -17.5603 -30.6748
rtoes -0.787729
lfemur -23.3639 13.072 -6.71917
ltibia 55.9208
lfoot 8.50735 -11.4882
ltoes -22.6701
718
root 0.858916 17.8366 3.59768 -5.27255 14.6693 -2.62154
lowerback 7.07627 -1.96455 -1.88842
upperback 1.31719 -2.71778 1.18936
thorax -2.45708 -1.33656 2.53016
lowerneck -5.81674 8.56288 13.1597
upperneck 21.4219 11.6018 -6.74171
head 8.8247 5.96289 -3.26585
rclavicle -1.64355e-014 -4.17448e-015
rhumerus -49.3858 3.83031 -62.1391
rradius 58.4824
rwrist 2.87032
rhand 6.98329 3.34115
rfingers 7.12502
rthumb 32.2598 -23.8124
lclavicle -1.64355e-014 -4.17448e-015
lhumerus -25.1987 -8.77701 73.5048
lradius 60.4882
lwrist -4.46886
lhand -6.90623 -3.87973
lfingers 7.12502
lthumb 18.961 25.2161
rfemur -0.0933173 -9.59576 23.1578
rtibia 32.0323
rfoot -17.1416 -30.1646
rtoes -0.896115
lfemur -24.9304 12.7757 -5.77969
ltibia 57.793
lfoot 11.367 -11.5784
ltoes -20.9823
719
root 0.79159 17.8392 3.5878 -5.46501 14.4496 -3.181
lowerback 7.11968 -1.86821 -1.48072
upperback 1.33373 -2.55563 1.31905
thorax -2.48536 -1.25804 2.42281
lowerneck -5.71256 8.63794 13.3247
upperneck 21.3565 11.6716 -6.64074
head 8.79727 6.01925 -3.25249
rclavicle -4.35618e-014 1.98785e-015
rhumerus -49.3366 3.81899 -62.3502
rradius 58.4539
rwrist 3.23765
rhand 6.96086 3.3061
rfingers 7.12502
rthumb 32.2384 -23.8517
lclavicle -4.35618e-014 1.98785e-015
lhumerus -25.2146 -8.92705 73.244
lradius 61.0597
lwrist -4.24066
lhand -6.96145 -3.97323
lfingers 7.12502
lthumb 18.9079 25.1278
rfemur 0.248714 -9.95522 23.8427
rtibia 31.2629
rfoot -16.7227 -29.6513
rtoes -0.965759
lfemur -26.5651 12.3316 -4.84655
ltibia 59.6965
lfoot 14.2849 -11.667
ltoes -18.4748
